<?xml version="1.0" standalone="no"?>
<!DOCTYPE svg PUBLIC "-//W3C//DTD SVG 20010904//EN"
 "http://www.w3.org/TR/2001/REC-SVG-20010904/DTD/svg10.dtd">
<svg version="1.0" xmlns="http://www.w3.org/2000/svg"
 width="512.000000pt" height="512.000000pt" viewBox="0 0 512.000000 512.000000"
 preserveAspectRatio="xMidYMid meet">
<metadata>
Created by potrace 1.11, written by Peter Selinger 2001-2013
</metadata>
<g transform="translate(0.000000,512.000000) scale(0.100000,-0.100000)"
fill="#000000" stroke="none">
<path d="M2109 4688 c-36 -7 -78 -50 -81 -82 0 -12 -2 -25 -3 -31 -11 -70 -15
-97 -20 -135 -3 -25 -8 -52 -10 -60 -2 -8 -7 -42 -10 -75 -3 -33 -8 -69 -11
-80 -2 -11 -6 -36 -8 -55 -13 -129 -12 -128 -85 -162 -89 -43 -175 -93 -239
-141 l-53 -39 -279 112 c-312 126 -328 128 -374 67 -55 -73 -447 -769 -448
-795 -2 -50 13 -71 90 -132 42 -33 84 -67 93 -74 9 -7 47 -37 85 -66 38 -29
81 -63 95 -74 14 -12 43 -34 64 -51 63 -49 63 -50 54 -97 -4 -24 -6 -117 -4
-208 l3 -165 -85 -65 c-47 -36 -90 -70 -97 -75 -6 -6 -73 -59 -148 -118 -180
-141 -183 -150 -91 -309 34 -56 73 -125 88 -153 25 -45 47 -82 82 -140 37 -63
159 -276 177 -309 31 -59 82 -106 114 -106 15 0 152 50 304 111 l278 111 37
-30 c52 -40 164 -107 249 -147 l71 -34 8 -53 c4 -29 9 -60 10 -68 1 -8 6 -40
10 -70 4 -30 9 -62 10 -70 3 -25 19 -135 20 -140 1 -3 5 -34 9 -70 12 -106 24
-137 58 -161 l31 -23 441 1 c243 1 451 2 462 2 12 1 35 13 51 29 29 27 39 64
57 212 6 50 18 132 21 150 1 8 6 40 10 70 4 30 9 62 10 70 1 8 6 38 10 67 l7
52 74 36 c89 44 195 107 247 147 41 32 40 33 132 -7 17 -7 127 -52 245 -99
277 -111 282 -111 361 29 19 33 43 76 54 96 96 169 141 245 147 247 4 2 8 8 8
13 0 5 42 82 94 172 52 89 97 173 99 187 10 55 -15 82 -255 270 l-234 183 7
56 c4 31 6 127 4 214 -2 86 0 157 4 157 4 0 16 8 27 18 10 9 111 89 223 177
208 162 234 190 224 245 -2 14 -52 108 -110 210 -353 614 -357 620 -413 620
-21 0 -267 -92 -385 -144 -16 -8 -67 -28 -112 -46 l-82 -32 -38 29 c-59 46
-182 119 -254 152 l-66 30 -13 93 c-7 51 -14 102 -16 113 -1 12 -10 72 -19
135 -9 63 -18 124 -20 135 -15 116 -27 145 -67 166 -24 13 -869 20 -929 7z
m624 -1402 c321 -75 561 -368 572 -698 2 -68 -1 -99 -21 -213 -10 -56 -65
-174 -113 -242 -300 -427 -935 -422 -1230 10 -125 183 -160 441 -90 651 87
258 300 445 569 499 82 17 224 13 313 -7z"/>
</g>
</svg>
